HIERARCHY
ROOT Hips
{
	OFFSET 55.310501 45.591206 43.872097
	CHANNELS 6 Xposition Yposition Zposition Zrotation Xrotation Yrotation
	JOINT Chest
	{
		OFFSET -0.153500 1.163101 7.852402
		CHANNELS 6 Xposition Yposition Zposition Zrotation Xrotation Yrotation
		JOINT Chest2
		{
			OFFSET 0.000000 0.000000 3.343300
			CHANNELS 6 Xposition Yposition Zposition Zrotation Xrotation Yrotation
			JOINT Neck
			{
				OFFSET 0.000000 0.000000 7.785500
				CHANNELS 6 Xposition Yposition Zposition Zrotation Xrotation Yrotation
				JOINT Head
				{
					OFFSET 0.000000 0.000000 2.173901
					CHANNELS 6 Xposition Yposition Zposition Zrotation Xrotation Yrotation
					End Site
					{
						OFFSET 0.000000 0.000000 10.528198
					}
				}
			}
			JOINT LeftCollar
			{
				OFFSET 2.676300 -1.652401 4.938301
				CHANNELS 6 Xposition Yposition Zposition Zrotation Xrotation Yrotation
				JOINT LeftShoulder
				{
					OFFSET 4.299000 0.000000 0.000000
					CHANNELS 6 Xposition Yposition Zposition Zrotation Xrotation Yrotation
					JOINT LeftElbow
					{
						OFFSET 0.000000 0.000000 -10.245102
						CHANNELS 6 Xposition Yposition Zposition Zrotation Xrotation Yrotation
						JOINT LeftWrist
						{
							OFFSET 0.000000 0.000000 -12.703300
							CHANNELS 6 Xposition Yposition Zposition Zrotation Xrotation Yrotation
							End Site
							{
								OFFSET 0.000000 0.000000 -2.173901
							}
						}
					}
				}
			}
			JOINT RightCollar
			{
				OFFSET -2.534599 -1.686401 5.195000
				CHANNELS 6 Xposition Yposition Zposition Zrotation Xrotation Yrotation
				JOINT RightShoulder
				{
					OFFSET -4.144100 0.000000 0.000000
					CHANNELS 6 Xposition Yposition Zposition Zrotation Xrotation Yrotation
					JOINT RightElbow
					{
						OFFSET 0.000000 0.000000 -10.116501
						CHANNELS 6 Xposition Yposition Zposition Zrotation Xrotation Yrotation
						JOINT RightWrist
						{
							OFFSET 0.000000 0.000000 -12.937801
							CHANNELS 6 Xposition Yposition Zposition Zrotation Xrotation Yrotation
							End Site
							{
								OFFSET 0.000000 0.000000 -2.173901
							}
						}
					}
				}
			}
		}
	}
	JOINT LeftHip
	{
		OFFSET 2.175598 0.064499 -2.662899
		CHANNELS 6 Xposition Yposition Zposition Zrotation Xrotation Yrotation
		JOINT LeftKnee
		{
			OFFSET 0.000000 -0.000004 -18.585800
			CHANNELS 6 Xposition Yposition Zposition Zrotation Xrotation Yrotation
			JOINT LeftAnkle
			{
				OFFSET 0.000000 0.000000 -18.979500
				CHANNELS 6 Xposition Yposition Zposition Zrotation Xrotation Yrotation
				End Site
				{
					OFFSET 0.000000 -9.264000 0.000000
				}
			}
		}
	}
	JOINT RightHip
	{
		OFFSET -2.092400 -0.058102 -2.581200
		CHANNELS 6 Xposition Yposition Zposition Zrotation Xrotation Yrotation
		JOINT RightKnee
		{
			OFFSET 0.000000 -0.000004 -18.665001
			CHANNELS 6 Xposition Yposition Zposition Zrotation Xrotation Yrotation
			JOINT RightAnkle
			{
				OFFSET 0.000000 0.000000 -18.566601
				CHANNELS 6 Xposition Yposition Zposition Zrotation Xrotation Yrotation
				End Site
				{
					OFFSET 0.000000 -8.497601 0.000000
				}
			}
		}
	}
}
MOTION
Frames: 10
Frame Time: 0.041667
66.273811 13.153801 21.049892 2509.861747 12.770696 -3.016576 -0.153490 1.163106 7.852404 11.304378 -1.425887 -8.208082 0.000000 0.000005 3.343302 -2.825423 -11.227777 -0.014954 -0.000005 0.000000 7.785501 -46.775673 20.523971 23.750859 -0.000001 0.000008 2.173913 -4.687518 2.180127 -8.376453 2.676292 -1.652399 4.938298 23.618615 0.825961 -9.774223 4.299003 0.000006 -0.000004 -403.615167 -8.721593 267.246724 0.000003 -0.000010 -10.245104 341.322858 706.550394 611.044132 0.000000 -0.000007 -12.703296 1082.131022 -361.898693 414.735234 -2.534605 -1.686399 5.194996 -25.776685 -4.159964 13.509347 -4.144109 -0.000004 -0.000005 278.408920 199.116079 -16.656777 0.000011 0.000001 -10.116503 -430.469039 -375.161582 -383.129790 0.000002 0.000000 -12.937809 -1861.275289 7.060148 -17.280768 2.175600 0.064497 -2.662898 -978.940961 -40.888589 104.260379 0.000000 -0.000010 -18.585804 381.367055 -201.683274 -52.815647 0.000003 -0.000001 -18.979511 780.537462 -31.615849 -909.001354 -2.092390 -0.058109 -2.581198 1318.965700 -21.957810 -63.499968 0.000007 0.000002 -18.665009 -1069.527082 182.475334 -684.543251 -0.000001 0.000003 -18.566597 669.970414 -3.839417 -406.920760
66.292305 13.123806 21.067707 2509.937590 12.628239 -2.865996 -0.153503 1.163105 7.852407 11.219299 -1.274652 -8.391738 -0.000004 0.000004 3.343308 -2.789390 -11.278505 -0.012717 0.000011 -0.000004 7.785494 -46.799432 20.506164 23.823396 -0.000002 0.000002 2.173910 -4.672263 2.141793 -8.322724 2.676300 -1.652398 4.938292 24.122319 0.655774 -9.709612 4.299006 -0.000003 -0.000003 -404.170707 -8.606744 267.241861 0.000001 0.000007 -10.245109 341.561477 707.287126 611.139755 -0.000002 0.000003 -12.703296 1082.795681 -362.170398 414.539153 -2.534586 -1.686400 5.194994 -25.119399 -6.639235 13.426155 -4.144104 0.000002 0.000001 277.156946 199.161964 -19.937237 0.000000 -0.000003 -10.116502 -429.819980 -375.978090 -382.628618 -0.000001 -0.000008 -12.937791 -1862.216216 7.131142 -17.381525 2.175589 0.064499 -2.662895 -979.305092 -41.162118 103.972227 -0.000006 -0.000009 -18.585806 381.388911 -201.832227 -52.818778 0.000003 0.000009 -18.979509 780.531342 -31.697006 -908.977803 -2.092399 -0.058102 -2.581200 1318.813360 -21.773357 -63.265952 0.000001 0.000005 -18.665009 -1069.418346 182.546163 -684.460087 -0.000004 0.000004 -18.566591 669.845832 -3.784402 -406.800193
66.313507 13.089504 21.089298 2510.008842 12.461382 -2.747573 -0.153506 1.163106 7.852404 11.138125 -1.058364 -8.527275 -0.000010 0.000003 3.343299 -2.767020 -11.377558 -0.011943 0.000001 -0.000002 7.785501 -46.850238 20.456318 23.895012 -0.000002 0.000006 2.173903 -4.589471 2.132523 -8.229956 2.676289 -1.652402 4.938296 25.158653 0.315247 -9.687353 4.298994 0.000005 -0.000003 -405.285721 -8.437113 267.246615 -0.000003 0.000006 -10.245106 341.750482 707.844906 611.238437 -0.000007 0.000003 -12.703286 1083.377941 -362.445600 414.408341 -2.534597 -1.686398 5.195003 -25.512932 -6.982964 13.149122 -4.144112 0.000005 0.000004 276.902535 198.844251 -20.917837 0.000002 -0.000008 -10.116499 -429.343943 -376.884046 -382.121490 0.000000 -0.000003 -12.937803 -1863.107310 7.229936 -17.550028 2.175596 0.064500 -2.662897 -979.702226 -41.382579 103.615377 -0.000003 -0.000012 -18.585802 381.416505 -201.951973 -52.828508 0.000004 -0.000002 -18.979509 780.517081 -31.789261 -908.991300 -2.092393 -0.058100 -2.581202 1318.642222 -21.604370 -63.031158 0.000007 0.000001 -18.665010 -1069.245460 182.599015 -684.354356 -0.000002 0.000003 -18.566593 669.748624 -3.707396 -406.657415
66.333908 13.054806 21.114693 2510.186318 12.310832 -2.653448 -0.153497 1.163100 7.852407 10.954428 -0.901591 -8.662250 0.000008 0.000003 3.343304 -2.735020 -11.447348 -0.009617 0.000007 -0.000006 7.785503 -46.915671 20.403547 23.998355 -0.000001 0.000001 2.173911 -4.489898 2.104779 -8.205052 2.676297 -1.652401 4.938305 25.912338 0.056103 -9.781447 4.298995 0.000007 -0.000001 -406.059828 -8.380363 267.435893 0.000006 -0.000005 -10.245101 341.790753 708.100628 611.201664 -0.000009 0.000002 -12.703310 1083.930039 -362.492756 414.623792 -2.534597 -1.686399 5.195004 -25.714583 -7.150152 13.005132 -4.144108 -0.000009 -0.000007 275.548409 198.550512 -22.466596 0.000005 0.000002 -10.116485 -428.654094 -378.863681 -381.468688 0.000001 0.000005 -12.937807 -1864.782181 7.275916 -17.685713 2.175597 0.064498 -2.662892 -980.194437 -41.611042 103.245488 -0.000008 -0.000003 -18.585804 381.461257 -202.075996 -52.834037 0.000002 0.000002 -18.979509 780.490470 -31.902659 -909.019823 -2.092391 -0.058104 -2.581192 1318.298964 -21.337321 -62.841149 0.000003 0.000009 -18.665003 -1068.979137 182.663533 -684.231194 -0.000004 0.000000 -18.566593 669.637429 -3.615568 -406.522778
66.354202 13.018604 21.144192 2510.284017 12.179861 -2.578084 -0.153499 1.163105 7.852405 10.851086 -0.777262 -8.770568 0.000002 0.000003 3.343304 -2.689515 -11.500548 -0.004118 0.000001 -0.000002 7.785511 -47.007452 20.336202 24.135495 -0.000001 0.000002 2.173908 -4.358970 2.093568 -8.232902 2.676293 -1.652398 4.938303 26.460266 -0.120190 -9.885707 4.298999 0.000000 0.000003 -406.585233 -8.366945 267.669622 0.000010 -0.000001 -10.245109 341.747149 708.166745 611.089976 -0.000005 -0.000000 -12.703293 1084.125546 -362.695148 414.484128 -2.534607 -1.686399 5.195004 -25.810445 -7.224383 12.944922 -4.144108 0.000001 0.000004 275.640426 198.439439 -22.562145 0.000001 -0.000001 -10.116501 -428.720101 -378.760053 -381.406834 0.000009 -0.000010 -12.937798 -1864.533672 7.275301 -17.656809 2.175586 0.064503 -2.662886 -980.615614 -41.809203 102.848244 -0.000007 -0.000002 -18.585806 381.509095 -202.219348 -52.830140 0.000005 0.000001 -18.979511 780.455063 -32.034728 -909.053919 -2.092408 -0.058104 -2.581194 1318.054061 -21.121105 -62.671944 0.000009 -0.000001 -18.665003 -1068.715000 182.701236 -684.093552 -0.000000 0.000004 -18.566597 669.566340 -3.517073 -406.392403
66.374802 12.980400 21.177498 2510.370569 12.037361 -2.529800 -0.153498 1.163102 7.852408 10.757315 -0.657283 -8.845136 -0.000001 0.000006 3.343299 -2.638773 -11.529978 0.001771 -0.000001 0.000002 7.785500 -47.061492 20.305983 24.232603 0.000003 0.000000 2.173902 -4.287945 2.094529 -8.239017 2.676293 -1.652403 4.938297 26.766722 -0.226168 -10.059526 4.298995 -0.000000 0.000004 -406.818307 -8.426964 267.988155 0.000006 0.000000 -10.245112 341.619971 708.066751 610.898130 0.000000 0.000002 -12.703289 1084.132213 -362.823747 414.329384 -2.534612 -1.686400 5.195000 -25.922612 -7.327620 12.866911 -4.144105 -0.000001 0.000007 275.749818 198.345251 -22.685778 0.000007 0.000010 -10.116489 -428.884025 -378.632629 -381.400741 0.000004 -0.000007 -12.937798 -1864.225494 7.271886 -17.613560 2.175595 0.064499 -2.662890 -981.062691 -42.008628 102.384078 -0.000006 -0.000006 -18.585802 381.568163 -202.416413 -52.814185 -0.000000 0.000005 -18.979511 780.407470 -32.190784 -909.079655 -2.092396 -0.058092 -2.581190 1317.880848 -21.017283 -62.465304 -0.000001 -0.000000 -18.665005 -1068.525831 182.718229 -683.952959 -0.000003 -0.000006 -18.566603 669.517545 -3.441043 -406.282328
66.396896 12.941807 21.212492 2510.444881 11.861250 -2.561936 -0.153495 1.163100 7.852408 10.673648 -0.503373 -8.838354 0.000010 0.000004 3.343304 -2.568128 -11.510559 0.009521 0.000002 -0.000006 7.785505 -47.129487 20.286890 24.336068 -0.000002 0.000005 2.173901 -4.229257 2.070318 -8.259023 2.676300 -1.652400 4.938300 26.751923 -0.255064 -10.243142 4.299006 -0.000002 -0.000002 -406.680200 -8.539416 268.370809 0.000004 -0.000001 -10.245119 341.369631 707.693167 610.613448 0.000005 0.000005 -12.703294 1083.879113 -362.884262 414.173546 -2.534593 -1.686404 5.195003 -25.939766 -7.398529 12.841913 -4.144098 -0.000003 0.000005 275.708973 198.347191 -22.787070 0.000006 -0.000004 -10.116495 -429.014618 -378.595282 -381.436504 0.000003 0.000003 -12.937801 -1864.028784 7.281053 -17.526750 2.175593 0.064500 -2.662893 -981.537198 -42.083046 101.842287 -0.000009 0.000000 -18.585802 381.605155 -202.597850 -52.813492 0.000012 -0.000003 -18.979506 780.360751 -32.345829 -909.117467 -2.092399 -0.058102 -2.581194 1317.762603 -21.071110 -62.244368 0.000002 -0.000003 -18.665007 -1068.418406 182.735100 -683.814989 -0.000002 0.000000 -18.566593 669.475362 -3.388790 -406.206540
66.415802 12.905102 21.249498 2510.530996 11.680723 -2.579706 -0.153509 1.163104 7.852407 10.577758 -0.374612 -8.852854 0.000001 0.000008 3.343309 -2.481801 -11.457125 0.018813 0.000001 0.000000 7.785503 -47.161015 20.298824 24.401158 0.000002 0.000002 2.173912 -4.236003 2.039210 -8.314322 2.676296 -1.652396 4.938303 26.458683 -0.189087 -10.382047 4.299004 0.000004 -0.000008 -406.235418 -8.658245 268.741552 0.000006 -0.000006 -10.245102 341.096232 707.285650 610.295434 -0.000001 -0.000001 -12.703299 1083.562083 -362.938931 413.993748 -2.534597 -1.686399 5.194996 -25.921594 -7.501445 12.838208 -4.144107 0.000000 -0.000004 275.858391 198.378227 -22.829972 0.000006 0.000006 -10.116494 -429.070954 -378.431931 -381.411451 0.000000 -0.000002 -12.937809 -1863.861144 7.359040 -17.422532 2.175587 0.064500 -2.662894 -982.028097 -42.224025 101.284711 -0.000003 -0.000009 -18.585800 381.672665 -202.842589 -52.824229 -0.000002 -0.000002 -18.979509 780.304252 -32.491592 -909.126374 -2.092409 -0.058104 -2.581198 1317.692225 -21.167117 -61.978988 0.000002 -0.000002 -18.665010 -1068.380157 182.732204 -683.690133 0.000001 0.000004 -18.566603 669.444708 -3.359785 -406.144058
66.432800 12.869297 21.287697 2510.614270 11.509827 -2.576793 -0.153505 1.163102 7.852401 10.483194 -0.231998 -8.855214 0.000002 0.000003 3.343297 -2.413204 -11.451026 0.023972 0.000007 -0.000006 7.785503 -47.164806 20.314560 24.403409 0.000002 0.000004 2.173906 -4.255614 2.049126 -8.307957 2.676292 -1.652408 4.938302 26.582546 -0.266350 -10.493214 4.299003 -0.000004 -0.000008 -406.292491 -8.672206 268.949135 0.000000 -0.000007 -10.245107 340.942908 707.043862 610.126209 -0.000003 0.000003 -12.703293 1083.435533 -363.000266 413.915146 -2.534595 -1.686407 5.195001 -25.932461 -7.539530 12.791013 -4.144105 -0.000006 -0.000006 276.863467 198.450327 -22.125655 0.000007 -0.000016 -10.116493 -429.490437 -377.223206 -381.660452 0.000002 -0.000007 -12.937795 -1862.858363 7.416974 -17.227709 2.175594 0.064495 -2.662889 -982.517904 -42.411974 100.731200 0.000000 -0.000006 -18.585804 381.850659 -202.994793 -52.878416 -0.000001 0.000010 -18.979509 780.410748 -32.638879 -909.102113 -2.092394 -0.058102 -2.581192 1317.673319 -21.284869 -61.688240 0.000002 0.000006 -18.665001 -1068.393271 182.710292 -683.572654 -0.000002 0.000001 -18.566605 669.550713 -3.224355 -406.152418
66.447800 12.835403 21.326498 2510.725957 11.351056 -2.592322 -0.153502 1.163101 7.852402 10.360074 -0.124412 -8.834629 0.000001 0.000005 3.343301 -2.315120 -11.434899 0.032433 -0.000010 0.000000 7.785498 -47.155670 20.348952 24.382964 0.000004 0.000006 2.173911 -4.310705 2.044761 -8.280383 2.676291 -1.652402 4.938298 26.560063 -0.281191 -10.571571 4.299000 0.000000 -0.000008 -406.243970 -8.669873 269.054648 -0.000006 -0.000002 -10.245112 340.808763 706.783058 609.999550 -0.000003 -0.000007 -12.703300 1083.289094 -363.056848 413.875668 -2.534592 -1.686404 5.194991 -25.914562 -7.498665 12.783553 -4.144096 -0.000000 -0.000005 276.937478 198.496103 -22.074386 0.000006 -0.000007 -10.116495 -429.687091 -377.084553 -381.702472 0.000007 -0.000003 -12.937803 -1862.793449 7.490437 -17.081775 2.175589 0.064496 -2.662895 -983.022245 -42.577477 100.194948 0.000006 -0.000013 -18.585806 381.920928 -203.304037 -52.941326 0.000005 0.000003 -18.979509 780.338895 -32.737339 -909.064246 -2.092403 -0.058105 -2.581198 1317.607859 -21.372207 -61.429267 0.000003 -0.000006 -18.665009 -1068.379392 182.686182 -683.463699 -0.000004 0.000004 -18.566599 669.542080 -3.214066 -406.127802
